<svg width="31" height="31" viewBox="0 0 31 31" fill="none" xmlns="http://www.w3.org/2000/svg">
<path d="M11.5342 4.16563L13.6412 7.75H13.5625H9.20312C7.86504 7.75 6.78125 6.66621 6.78125 5.32812C6.78125 3.99004 7.86504 2.90625 9.20312 2.90625H9.33633C10.2385 2.90625 11.0801 3.38457 11.5342 4.16563ZM3.875 5.32812C3.875 6.2 4.08691 7.02344 4.45625 7.75H1.9375C0.86582 7.75 0 8.61582 0 9.6875V13.5625C0 14.6342 0.86582 15.5 1.9375 15.5H29.0625C30.1342 15.5 31 14.6342 31 13.5625V9.6875C31 8.61582 30.1342 7.75 29.0625 7.75H26.5437C26.9131 7.02344 27.125 6.2 27.125 5.32812C27.125 2.38555 24.7395 0 21.7969 0H21.6637C19.7322 0 17.94 1.02324 16.9592 2.68828L15.5 5.17676L14.0408 2.69434C13.06 1.02324 11.2678 0 9.33633 0H9.20312C6.26055 0 3.875 2.38555 3.875 5.32812ZM24.2188 5.32812C24.2188 6.66621 23.135 7.75 21.7969 7.75H17.4375H17.3588L19.4658 4.16563C19.926 3.38457 20.7615 2.90625 21.6637 2.90625H21.7969C23.135 2.90625 24.2188 3.99004 24.2188 5.32812ZM1.9375 17.4375V28.0938C1.9375 29.6982 3.23926 31 4.84375 31H13.5625V17.4375H1.9375ZM17.4375 31H26.1562C27.7607 31 29.0625 29.6982 29.0625 28.0938V17.4375H17.4375V31Z" fill="black"/>
</svg>
