<svg width="33" height="33" viewBox="0 0 33 33" fill="none" xmlns="http://www.w3.org/2000/svg">
<g clip-path="url(#clip0_7_67)">
<path d="M32.4844 16.5C32.4844 7.66992 25.3301 0.515625 16.5 0.515625C7.66992 0.515625 0.515625 7.66992 0.515625 16.5C0.515625 24.478 6.36088 31.0909 14.0024 32.291V21.1206H9.94189V16.5H14.0024V12.9783C14.0024 8.97252 16.3872 6.75984 20.0398 6.75984C21.789 6.75984 23.6182 7.0718 23.6182 7.0718V11.0034H21.6021C19.617 11.0034 18.9976 12.2358 18.9976 13.4997V16.5H23.4306L22.7217 21.1206H18.9976V32.291C26.6391 31.0909 32.4844 24.478 32.4844 16.5Z" fill="white"/>
</g>
<defs>
<clipPath id="clip0_7_67">
<rect width="33" height="33" fill="white"/>
</clipPath>
</defs>
</svg>
