<svg width="40" height="32" viewBox="0 0 40 32" fill="none" xmlns="http://www.w3.org/2000/svg">
<path d="M17.5 1.9999C16.6688 1.9999 16 2.66865 16 3.4999C16 4.33115 16.6688 4.9999 17.5 4.9999H21.1063L22.1313 6.89365L16 11.9999L13.1687 9.16865C12.4187 8.41865 11.4 7.9999 10.3375 7.9999H4C2.89375 7.9999 2 8.89365 2 9.9999V11.9999H8C13.525 11.9999 18 16.4749 18 21.9999C18 22.6874 17.9312 23.3562 17.8 23.9999H22.2C22.0688 23.3562 22 22.6874 22 21.9999C22 18.7374 23.5625 15.8374 25.9813 14.0124L26.9438 15.7999C25.15 17.2687 24 19.4999 24 21.9999C24 26.4187 27.5812 29.9999 32 29.9999C36.4188 29.9999 40 26.4187 40 21.9999C40 17.5812 36.4188 13.9999 32 13.9999C31.1562 13.9999 30.3438 14.1312 29.5812 14.3749L26.1375 7.9999H30C31.1063 7.9999 32 7.10615 32 5.9999V3.9999C32 2.89365 31.1063 1.9999 30 1.9999H28.725C28.2563 1.9999 27.8062 2.1624 27.4438 2.4624L24.4813 4.93115L23.6063 3.30615C23.1688 2.4999 22.325 1.99365 21.4062 1.99365H17.5V1.9999ZM28.9188 19.4499L30.6812 22.7124C31.075 23.4437 31.9875 23.7124 32.7125 23.3187C33.4375 22.9249 33.7125 22.0124 33.3187 21.2874L31.5562 18.0249C31.7 18.0062 31.85 17.9999 32 17.9999C34.2062 17.9999 36 19.7937 36 21.9999C36 24.2062 34.2062 25.9999 32 25.9999C29.7938 25.9999 28 24.2062 28 21.9999C28 21.0312 28.3438 20.1437 28.9188 19.4499ZM11.7063 23.4999C11.1125 24.9687 9.675 25.9999 8 25.9999C5.79375 25.9999 4 24.2062 4 21.9999C4 19.7937 5.79375 17.9999 8 17.9999C9.68125 17.9999 11.1188 19.0312 11.7063 20.4999H15.8562C15.1562 16.7999 11.9062 13.9999 8 13.9999C3.58125 13.9999 0 17.5812 0 21.9999C0 26.4187 3.58125 29.9999 8 29.9999C11.9062 29.9999 15.1562 27.1999 15.8625 23.4999H11.7063ZM8 23.9999C8.53043 23.9999 9.03914 23.7892 9.41421 23.4141C9.78929 23.039 10 22.5303 10 21.9999C10 21.4695 9.78929 20.9608 9.41421 20.5857C9.03914 20.2106 8.53043 19.9999 8 19.9999C7.46957 19.9999 6.96086 20.2106 6.58579 20.5857C6.21071 20.9608 6 21.4695 6 21.9999C6 22.5303 6.21071 23.039 6.58579 23.4141C6.96086 23.7892 7.46957 23.9999 8 23.9999Z" fill="black"/>
</svg>
