<svg width="36" height="35" viewBox="0 0 36 35" fill="none" xmlns="http://www.w3.org/2000/svg">
<path d="M4.5 7.65625C3.88125 7.65625 3.375 8.14844 3.375 8.75V10.2607L15.5039 19.9404C16.9594 21.1025 19.0477 21.1025 20.5031 19.9404L32.625 10.2607V8.75C32.625 8.14844 32.1188 7.65625 31.5 7.65625H4.5ZM3.375 14.5059V26.25C3.375 26.8516 3.88125 27.3438 4.5 27.3438H31.5C32.1188 27.3438 32.625 26.8516 32.625 26.25V14.5059L22.6406 22.4766C19.9406 24.6299 16.0523 24.6299 13.3594 22.4766L3.375 14.5059ZM0 8.75C0 6.33691 2.01797 4.375 4.5 4.375H31.5C33.982 4.375 36 6.33691 36 8.75V26.25C36 28.6631 33.982 30.625 31.5 30.625H4.5C2.01797 30.625 0 28.6631 0 26.25V8.75Z" fill="black"/>
</svg>
