<svg width="31" height="28" viewBox="0 0 31 28" fill="none" xmlns="http://www.w3.org/2000/svg">
<g clip-path="url(#clip0_9_158)">
<path d="M0 1.3125C0 0.585156 0.575868 0 1.29167 0H3.74045C4.92448 0 5.97396 0.7 6.46371 1.75H28.5835C29.999 1.75 31.0323 3.11719 30.6609 4.50625L28.4543 12.8352C27.9969 14.5523 26.463 15.75 24.7139 15.75H9.18698L9.4776 17.3086C9.59601 17.9266 10.1288 18.375 10.7477 18.375H26.2639C26.9797 18.375 27.5556 18.9602 27.5556 19.6875C27.5556 20.4148 26.9797 21 26.2639 21H10.7477C8.88559 21 7.28715 19.6547 6.94271 17.8008L4.16562 2.98047C4.12795 2.77266 3.95035 2.625 3.74045 2.625H1.29167C0.575868 2.625 0 2.03984 0 1.3125ZM6.88889 25.375C6.88889 25.0303 6.95571 24.6889 7.08553 24.3705C7.21536 24.052 7.40564 23.7626 7.64553 23.5188C7.88541 23.2751 8.1702 23.0817 8.48362 22.9498C8.79705 22.8179 9.13297 22.75 9.47222 22.75C9.81147 22.75 10.1474 22.8179 10.4608 22.9498C10.7742 23.0817 11.059 23.2751 11.2989 23.5188C11.5388 23.7626 11.7291 24.052 11.8589 24.3705C11.9887 24.6889 12.0556 25.0303 12.0556 25.375C12.0556 25.7197 11.9887 26.0611 11.8589 26.3795C11.7291 26.698 11.5388 26.9874 11.2989 27.2312C11.059 27.4749 10.7742 27.6683 10.4608 27.8002C10.1474 27.9321 9.81147 28 9.47222 28C9.13297 28 8.79705 27.9321 8.48362 27.8002C8.1702 27.6683 7.88541 27.4749 7.64553 27.2312C7.40564 26.9874 7.21536 26.698 7.08553 26.3795C6.95571 26.0611 6.88889 25.7197 6.88889 25.375ZM24.9722 22.75C25.6574 22.75 26.3144 23.0266 26.7989 23.5188C27.2834 24.0111 27.5556 24.6788 27.5556 25.375C27.5556 26.0712 27.2834 26.7389 26.7989 27.2312C26.3144 27.7234 25.6574 28 24.9722 28C24.2871 28 23.63 27.7234 23.1455 27.2312C22.6611 26.7389 22.3889 26.0712 22.3889 25.375C22.3889 24.6788 22.6611 24.0111 23.1455 23.5188C23.63 23.0266 24.2871 22.75 24.9722 22.75Z" fill="white"/>
</g>
<defs>
<clipPath id="clip0_9_158">
<rect width="31" height="28" fill="white"/>
</clipPath>
</defs>
</svg>
