<svg width="29" height="31" viewBox="0 0 29 31" fill="none" xmlns="http://www.w3.org/2000/svg">
<path d="M14.5 15.5C16.6975 15.5 18.805 14.6835 20.3589 13.2301C21.9128 11.7767 22.7857 9.80543 22.7857 7.75C22.7857 5.69457 21.9128 3.72333 20.3589 2.26992C18.805 0.816516 16.6975 0 14.5 0C12.3025 0 10.195 0.816516 8.64111 2.26992C7.08724 3.72333 6.21429 5.69457 6.21429 7.75C6.21429 9.80543 7.08724 11.7767 8.64111 13.2301C10.195 14.6835 12.3025 15.5 14.5 15.5ZM11.5417 18.4062C5.16563 18.4062 0 23.2379 0 29.2018C0 30.1947 0.860938 31 1.92254 31H27.0775C28.1391 31 29 30.1947 29 29.2018C29 23.2379 23.8344 18.4062 17.4583 18.4062H11.5417Z" fill="black"/>
</svg>
