<svg width="27" height="31" viewBox="0 0 27 31" fill="none" xmlns="http://www.w3.org/2000/svg">
<path d="M25.0714 0C24.1071 0 17.3571 1.9375 17.3571 10.6562V17.4375C17.3571 19.5748 19.0868 21.3125 21.2143 21.3125H23.1429V29.0625C23.1429 30.1342 24.0047 31 25.0714 31C26.1382 31 27 30.1342 27 29.0625V21.3125V14.5312V1.9375C27 0.86582 26.1382 0 25.0714 0ZM3.85714 0.96875C3.85714 0.472266 3.48951 0.0605469 2.99531 0.00605469C2.50112 -0.0484375 2.06116 0.278516 1.95268 0.756836L0.126562 9.00938C0.0421875 9.39082 0 9.77832 0 10.1658C0 12.9449 2.1154 15.2275 4.82143 15.4758V29.0625C4.82143 30.1342 5.68326 31 6.75 31C7.81674 31 8.67857 30.1342 8.67857 29.0625V15.4758C11.3846 15.2275 13.5 12.9449 13.5 10.1658C13.5 9.77832 13.4578 9.39082 13.3734 9.00938L11.5473 0.756836C11.4388 0.272461 10.9868 -0.0484375 10.4987 0.00605469C10.0105 0.0605469 9.64286 0.472266 9.64286 0.96875V9.09414C9.64286 9.42109 9.37768 9.6875 9.05223 9.6875C8.74487 9.6875 8.49174 9.45137 8.46161 9.14258L7.70826 0.883984C7.66607 0.381445 7.25022 0 6.75 0C6.24978 0 5.83393 0.381445 5.79174 0.883984L5.04442 9.14258C5.01429 9.45137 4.76116 9.6875 4.45379 9.6875C4.12835 9.6875 3.86317 9.42109 3.86317 9.09414V0.96875H3.85714ZM6.76808 10.1719H6.75H6.73192L6.75 10.1295L6.76808 10.1719Z" fill="#0F4D28"/>
</svg>
