<svg width="47" height="42" viewBox="0 0 47 42" fill="none" xmlns="http://www.w3.org/2000/svg">
<path d="M0 1.96875C0 0.877734 0.863802 0 1.9375 0H5.61068C7.38672 0 8.96094 1.05 9.69557 2.625H42.8753C44.9984 2.625 46.5484 4.67578 45.9914 6.75938L42.6815 19.2527C41.9953 21.8285 39.6945 23.625 37.0708 23.625H13.7805L14.2164 25.9629C14.394 26.8898 15.1932 27.5625 16.1216 27.5625H39.3958C40.4695 27.5625 41.3333 28.4402 41.3333 29.5312C41.3333 30.6223 40.4695 31.5 39.3958 31.5H16.1216C13.3284 31.5 10.9307 29.482 10.4141 26.7012L6.24844 4.4707C6.19193 4.15898 5.92552 3.9375 5.61068 3.9375H1.9375C0.863802 3.9375 0 3.05977 0 1.96875ZM10.3333 38.0625C10.3333 37.5454 10.4336 37.0334 10.6283 36.5557C10.823 36.078 11.1085 35.6439 11.4683 35.2783C11.8281 34.9126 12.2553 34.6226 12.7254 34.4247C13.1956 34.2268 13.6995 34.125 14.2083 34.125C14.7172 34.125 15.2211 34.2268 15.6912 34.4247C16.1614 34.6226 16.5885 34.9126 16.9484 35.2783C17.3082 35.6439 17.5936 36.078 17.7884 36.5557C17.9831 37.0334 18.0833 37.5454 18.0833 38.0625C18.0833 38.5796 17.9831 39.0916 17.7884 39.5693C17.5936 40.047 17.3082 40.4811 16.9484 40.8467C16.5885 41.2124 16.1614 41.5024 15.6912 41.7003C15.2211 41.8982 14.7172 42 14.2083 42C13.6995 42 13.1956 41.8982 12.7254 41.7003C12.2553 41.5024 11.8281 41.2124 11.4683 40.8467C11.1085 40.4811 10.823 40.047 10.6283 39.5693C10.4336 39.0916 10.3333 38.5796 10.3333 38.0625ZM37.4583 34.125C38.486 34.125 39.4717 34.5398 40.1984 35.2783C40.9251 36.0167 41.3333 37.0182 41.3333 38.0625C41.3333 39.1068 40.9251 40.1083 40.1984 40.8467C39.4717 41.5852 38.486 42 37.4583 42C36.4306 42 35.445 41.5852 34.7183 40.8467C33.9916 40.1083 33.5833 39.1068 33.5833 38.0625C33.5833 37.0182 33.9916 36.0167 34.7183 35.2783C35.445 34.5398 36.4306 34.125 37.4583 34.125Z" fill="white"/>
</svg>
