<svg width="23" height="20" viewBox="0 0 23 20" fill="none" xmlns="http://www.w3.org/2000/svg">
<g clip-path="url(#clip0_7_10)">
<path d="M11.5 1.25C8.2736 1.25 5.6901 2.6875 3.80937 4.39844C1.94062 6.09375 0.690792 8.125 0.0998199 9.51953C-0.0319509 9.82812 -0.0319509 10.1719 0.0998199 10.4805C0.690792 11.875 1.94062 13.9062 3.80937 15.6016C5.6901 17.3125 8.2736 18.75 11.5 18.75C14.7264 18.75 17.3099 17.3125 19.1906 15.6016C21.0594 13.9023 22.3092 11.875 22.9042 10.4805C23.0359 10.1719 23.0359 9.82812 22.9042 9.51953C22.3092 8.125 21.0594 6.09375 19.1906 4.39844C17.3099 2.6875 14.7264 1.25 11.5 1.25ZM5.74999 10C5.74999 8.50816 6.35579 7.07742 7.43413 6.02252C8.51246 4.96763 9.975 4.375 11.5 4.375C13.025 4.375 14.4875 4.96763 15.5659 6.02252C16.6442 7.07742 17.25 8.50816 17.25 10C17.25 11.4918 16.6442 12.9226 15.5659 13.9775C14.4875 15.0324 13.025 15.625 11.5 15.625C9.975 15.625 8.51246 15.0324 7.43413 13.9775C6.35579 12.9226 5.74999 11.4918 5.74999 10ZM11.5 7.5C11.5 8.87891 10.354 10 8.94444 10C8.66093 10 8.3894 9.95312 8.13385 9.87109C7.91423 9.80078 7.65867 9.93359 7.66666 10.1602C7.67864 10.4297 7.71857 10.6992 7.79444 10.9688C8.34149 12.9688 10.4458 14.1562 12.4903 13.6211C14.5347 13.0859 15.7486 11.0273 15.2016 9.02734C14.7583 7.40625 13.2929 6.31641 11.6637 6.25C11.4321 6.24219 11.2963 6.48828 11.3682 6.70703C11.4521 6.95703 11.5 7.22266 11.5 7.5Z" fill="black"/>
</g>
<defs>
<clipPath id="clip0_7_10">
<rect width="23" height="20" fill="white"/>
</clipPath>
</defs>
</svg>
